<svg xmlns="http://www.w3.org/2000/svg" width="22" height="19" viewBox="0 0 22 19"><g><g><path fill="#ef694b" d="M22 6.333v2.461c-.002.663-.884 1.182-2.2 1.57v2.301a.748.748 0 0 1-.072.315c.757.301 1.14.662 1.166 1.094h.006v2.461c-.003 1.171-2.749 1.897-5.8 2.237-.022.004-.043.014-.067.014-.007 0-.013-.005-.02-.005-.588.064-1.185.114-1.777.15-.012 0-.023.006-.036.006-.007 0-.013-.004-.02-.004-.75.044-1.489.066-2.18.066-.691 0-1.43-.022-2.18-.066-.008 0-.013.004-.02.004-.013 0-.024-.005-.036-.007a37.617 37.617 0 0 1-1.778-.149c-.007.002-.013.005-.02.005-.023 0-.044-.009-.066-.013-3.051-.34-5.797-1.067-5.8-2.236v-2.463h.005a.74.74 0 0 1 .05-.218C.437 13.526 0 13.13 0 12.666v-2.463h.004C.039 9.61.759 9.148 2.2 8.792v-2.46h.005a.764.764 0 0 1 .033-.178C.901 5.764.002 5.24 0 4.574V2.11h.006C.138.06 8.894 0 9.9 0c1.006 0 9.762.06 9.894 2.11h.006v2.462a.77.77 0 0 1-.079.33c1.492.358 2.238.829 2.275 1.43zm-2.933 6.332V11.21a5.558 5.558 0 0 1-1.1.483v1.678c.422-.158.742-.323.935-.485l.125-.106a.217.217 0 0 0 .04-.114zm-7.57 1.728l.236-.011v-1.757c-.367.016-.736.029-1.105.034h-.059c-.1.003-.201.004-.302.006v1.757l.398-.004.161-.004c.227-.004.45-.012.67-.021zm-2.177.027c.071.003.142.003.213.004v-1.759c-.1-.001-.201-.002-.302-.005h-.058c-.37-.006-.739-.019-1.106-.035v1.757a32.201 32.201 0 0 0 1.158.037l.095.001zm-6.583-.767c.282.074.593.146.93.215V12.15c-.39-.072-.758-.153-1.1-.243v1.7l.035.01c.044.013.09.024.135.036zm7.535 2.877c-.369-.006-.738-.018-1.105-.033v1.756c.47.022.96.036 1.466.041v-1.76c-.1 0-.202-.001-.302-.004h-.059zm1.397 0l-.302.004v1.759c.506-.005.995-.02 1.466-.04v-1.756c-.367.015-.737.026-1.106.033h-.058zm1.898-.075v1.755a34.74 34.74 0 0 0 1.1-.092V16.37c-.361.034-.728.062-1.1.085zm1.833 1.58c.388-.05.755-.103 1.1-.162v-1.729c-.355.056-.722.106-1.1.15zm1.833-.297c.406-.083.774-.17 1.1-.26v-1.701c-.342.089-.71.17-1.1.243zM3.666 15.777v1.7c.327.09.695.178 1.1.26V16.02c-.389-.072-.757-.154-1.1-.243zM5.5 17.873c.345.06.712.113 1.1.163v-1.741a28.251 28.251 0 0 1-1.1-.15zm1.833.245c.352.036.72.066 1.1.092v-1.754c-.372-.024-.739-.052-1.1-.086zm0-3.779v-1.753a35.4 35.4 0 0 1-1.1-.086v1.748c.027.001.053.004.08.007l.11.012c.298.028.602.05.91.072zM4.4 12.275v1.728c.345.059.712.112 1.1.162v-1.74a29.069 29.069 0 0 1-1.1-.15zm8.47 2.036c.238-.019.47-.041.697-.063V12.5c-.361.035-.729.062-1.1.085v1.755l.244-.018c.053-.003.106-.008.16-.01zm2.53-.308v-1.728c-.355.055-.722.105-1.1.15v1.74c.387-.049.754-.103 1.1-.162zm.733-.136c.406-.082.774-.17 1.1-.26v-1.7c-.342.09-.71.17-1.1.243zM11.2 10.544c.174.005.354.005.533.007V8.794l-.303-.004c-.019-.002-.038-.002-.057-.002-.37-.005-.739-.017-1.106-.033v1.756l.042.003c.265.012.534.02.81.028l.081.002zM2.964 5.62c.182.045.372.088.567.13.044.008.09.016.135.027V4.057c-.389-.072-.757-.154-1.1-.242v1.699c.127.035.26.07.398.105zm6.208-1.053c-.369-.005-.738-.017-1.106-.032v1.754c.483.024.974.035 1.467.04V4.572l-.302-.005-.059-.001zm1.397.001l-.302.005v1.757l.396-.004.119-.002c.254-.007.505-.013.75-.024h.016l.185-.011V4.534a53.69 53.69 0 0 1-1.106.032l-.058.001zm8.498.003V3.115a5.557 5.557 0 0 1-1.1.484v1.674c.381-.141.678-.287.872-.432l.133-.1.01.001c.055-.06.085-.117.085-.172zM15.4 5.908V4.183c-.355.054-.722.104-1.1.148V6.07c.386-.047.752-.102 1.1-.16zm1.833-.398V3.815c-.342.088-.71.17-1.1.242v1.715c.402-.082.772-.17 1.1-.262zm-4.766-1.017v1.753c.379-.026.746-.058 1.1-.093V4.407c-.361.034-.729.063-1.1.086zM7.333 6.244v-1.75c-.371-.024-.739-.053-1.1-.087v1.746c.359.036.727.066 1.1.091zM4.4 4.184v1.727l.12.02c.203.033.41.064.622.094.046.005.09.013.138.018.072.01.147.018.22.027V4.33a31.087 31.087 0 0 1-1.1-.147zm5.133 6.286V8.715a35.42 35.42 0 0 1-1.1-.086v1.748l.03.002.143.015c.224.021.453.041.688.06l.148.01c.03.002.062.003.091.006zm-2.488-.265c.21.03.43.06.655.09V8.554a28.271 28.271 0 0 1-1.1-.15v1.728l.42.068c.008.001.017.002.025.005zM4.766 8.037V9.73c.328.093.696.182 1.1.266V8.279c-.389-.073-.757-.154-1.1-.242zm-1.833-.7v1.457c0 .012.004.023.007.033l.024.04c.121.194.493.413 1.07.626V7.82a5.528 5.528 0 0 1-1.1-.484zM12.77 8.79l-.302.004v1.756c.495-.004.984-.017 1.466-.04V8.755a41.551 41.551 0 0 1-1.164.035zm4.831 1.342V8.405c-.355.055-.722.105-1.1.149v1.738l.284-.035a20.508 20.508 0 0 0 .782-.118l.034-.007zm-2.478.303c.219-.016.432-.038.645-.059V8.63a35.39 35.39 0 0 1-1.1.086v1.752c.138-.009.28-.017.416-.028.013 0 .026-.003.039-.004zm4.312-.698v-1.7c-.343.088-.711.17-1.1.243v1.716c.028-.005.058-.01.087-.017l.28-.06c.196-.045.39-.091.572-.139.055-.016.108-.029.16-.043zm-.287-4.243c-.023.015-.05.028-.073.041a2.29 2.29 0 0 1-.129.074c-.038.022-.074.044-.115.064-.09.048-.189.092-.29.137l-.083.034a8.13 8.13 0 0 1-.3.116l-.062.023c-.122.044-.25.086-.382.128a5.48 5.48 0 0 0-.14.04c-.076.021-.153.044-.233.065-1.718.472-4.187.775-6.851.815a33.1 33.1 0 0 1-1.417-.005c-.46-.01-.916-.028-1.365-.053H7.7l-.014-.002a34.285 34.285 0 0 1-1.818-.15s0 .002-.002.002-.004-.003-.007-.003a25.843 25.843 0 0 1-2.836-.462l-.078-.018c-.005.01-.005.015-.007.021.042.238.605.553 1.604.85 1.297.384 3.328.736 5.9.845a39.711 39.711 0 0 0 2.587.025l.332-.01c.134-.004.265-.009.397-.015 2.572-.109 4.602-.46 5.9-.845 1.006-.299 1.57-.615 1.604-.856-.041-.145-.474-.519-2.115-.861zM.739 2.141c.044.238.606.551 1.603.848 1.298.383 3.328.736 5.9.845.132.006.263.01.397.015l.332.01c.303.006.611.012.929.012.318 0 .625-.006.929-.012l.332-.01c.134-.004.265-.009.397-.015 2.572-.11 4.602-.462 5.9-.845.996-.297 1.559-.61 1.603-.848C19.004 1.617 15.946.703 9.9.703 3.854.703.796 1.617.739 2.141zm1.094 3.143V3.599a5.554 5.554 0 0 1-1.1-.484v1.457c0 .199.387.455 1.1.712zm-1.096 4.94c.033.24.597.558 1.605.857 1.298.384 3.328.736 5.9.846l.397.015.332.009a35.266 35.266 0 0 0 1.63.005c.091-.002.182-.005.272-.005.084-.004.165-.006.248-.008 2.78-.087 4.967-.456 6.336-.861a6.873 6.873 0 0 0 1.085-.408c-1.23.255-2.683.433-4.233.521l-.009.001h-.005a38.643 38.643 0 0 1-4.394 0h-.004c-1.545-.087-2.964-.263-4.153-.506-.097-.02-.193-.039-.288-.06-.03-.005-.062-.013-.092-.02-1.294-.284-2.333-.666-2.835-1.152l-.02-.017c-1.36.321-1.731.652-1.772.783zm.883 3.07l.004-.003.21.079v-1.678a5.58 5.58 0 0 1-1.1-.484v1.457c0 .177.31.402.886.63zm1.313 3.953v-1.685a5.53 5.53 0 0 1-1.1-.483v1.456c.001.198.387.456 1.1.712zm17.234-.713V15.08a5.534 5.534 0 0 1-1.1.483v1.685c.713-.258 1.1-.515 1.1-.713zm-.952-2.991c-.033.022-.073.043-.108.065a3.767 3.767 0 0 1-.219.127c-.643.343-1.58.618-2.663.831l-.077.016-.35.064c-.573.103-1.19.191-1.842.264-.008 0-.014.006-.022.006-.003 0-.004-.003-.007-.003-.584.065-1.193.116-1.822.153H12.1h-.003a39.435 39.435 0 0 1-2.197.062c-.152 0-.307 0-.464-.004a37.524 37.524 0 0 1-1.735-.058H7.7h-.002c-1.84-.104-3.545-.338-4.88-.665l-.18-.045-.118-.032a7.788 7.788 0 0 1-.34-.094c-.115-.035-.229-.072-.338-.107.07.236.63.54 1.6.828 1.298.385 3.328.736 5.9.846a98.082 98.082 0 0 0 .728.025 42.311 42.311 0 0 0 1.859 0c.112-.003.222-.005.332-.01.134-.004.265-.008.397-.015 2.572-.11 4.602-.46 5.9-.845 1-.298 1.564-.613 1.604-.85-.024-.09-.224-.31-.947-.56zm2.052-4.749V7.337a5.607 5.607 0 0 1-1.1.485v1.684c.713-.256 1.1-.514 1.1-.712z"/></g></g></svg>