<svg xmlns="http://www.w3.org/2000/svg" width="21" height="34" viewBox="0 0 21 34"><g><g><path fill="#49c5bb" d="M19.627 18.476a11.291 11.291 0 0 1-3.207 4.283 11.217 11.217 0 0 1-4.46 2.261c-2.443.592-4.986.3-7.031-.994-.968 1.253-4.004 5.482-3.386 8.659a.503.503 0 0 1-.4.583.495.495 0 0 1-.592-.377c-.703-3.557 2.523-8.094 3.567-9.442a7.927 7.927 0 0 1-2.199-2.885 8.018 8.018 0 0 1-.517-4.884 8.189 8.189 0 0 1 2.732-4.552A10.347 10.347 0 0 1 6.746 9.5C14.014 6.324 15.015.962 15.01.949V.948a.518.518 0 0 1 .593-.401c.138.023.26.1.335.215 5.082 7.39 5.496 13.455 3.688 17.714zM12.55 13.4l-1.537-3.554c-.005-.012-.01-.025-.016-.036a.496.496 0 0 1 .3-.636.5.5 0 0 1 .65.278l1.196 2.764a20.567 20.567 0 0 0 2.07-8.983c-1.019 2.024-3.265 5.08-8.066 7.163a9.246 9.246 0 0 0-2.355 1.455 7.196 7.196 0 0 0-2.41 4.002 7.066 7.066 0 0 0 1.676 6.141c.235.26.49.502.763.724 3.752-3.213 6.177-6.41 7.729-9.318zm3.665-10.34c.053 2.251-.323 6.056-2.624 10.51a29.406 29.406 0 0 1-3.158 4.803l3.45-.435a.492.492 0 0 1 .547.408.505.505 0 0 1-.43.565l-4.49.567A38.676 38.676 0 0 1 5.646 23.3c1.822 1.034 4.009 1.31 6.074.767a10.102 10.102 0 0 0 4.057-2.04 10.287 10.287 0 0 0 2.914-3.91l-.001-.003c1.553-3.65 1.323-8.778-2.475-15.054z"/></g></g></svg>