<svg xmlns="http://www.w3.org/2000/svg" width="39" height="39" viewBox="0 0 39 39"><g><g><path fill="#fff" d="M38.714 19.571c0 5.324-2.17 10.156-5.65 13.635a19.249 19.249 0 0 1-13.636 5.651 19.248 19.248 0 0 1-13.635-5.65A19.247 19.247 0 0 1 .143 19.57c0-5.322 2.17-10.155 5.65-13.634A19.25 19.25 0 0 1 19.428.287a19.25 19.25 0 0 1 13.636 5.65 19.247 19.247 0 0 1 5.65 13.634zm-1.515 0A17.74 17.74 0 0 0 32 7.042c-3.235-3.194-7.657-5.2-12.57-5.2-4.914 0-9.336 1.966-12.53 5.2-3.235 3.194-5.2 7.616-5.2 12.53 0 4.913 1.965 9.335 5.2 12.57 3.194 3.194 7.616 5.2 12.53 5.2 4.913 0 9.376-2.006 12.57-5.2 3.194-3.235 5.2-7.657 5.2-12.57zm-2.702-.04a15.04 15.04 0 0 1-4.422 10.646c-2.744 2.743-6.51 4.422-10.647 4.422-4.135 0-7.902-1.68-10.646-4.382C6.08 27.475 4.36 23.748 4.36 19.571A15.04 15.04 0 0 1 8.782 8.926a15.01 15.01 0 0 1 10.646-4.422c4.177 0 7.944 1.72 10.647 4.422 2.702 2.743 4.422 6.428 4.422 10.605zm-1.597.819h-1.925a.778.778 0 1 1 0-1.556H32.9a13.48 13.48 0 0 0-3.931-8.763c-2.252-2.294-5.323-3.727-8.762-3.93v1.924a.778.778 0 1 1-1.556 0V6.1a13.474 13.474 0 0 0-8.763 3.931 13.198 13.198 0 0 0-3.93 8.763h1.924a.777.777 0 1 1 0 1.556H5.957a13.48 13.48 0 0 0 3.931 8.762c2.252 2.294 5.323 3.727 8.763 3.931v-1.925a.778.778 0 1 1 1.556 0v1.925a13.477 13.477 0 0 0 8.762-3.931c2.293-2.252 3.726-5.324 3.93-8.762zm-11.793-2.498c.41.45.696 1.064.696 1.72 0 .655-.245 1.269-.696 1.72-.45.409-1.064.695-1.72.695-.655 0-1.269-.245-1.72-.696a2.436 2.436 0 0 1-.573-.941h-4.667a.805.805 0 0 1-.778-.779c0-.45.368-.777.778-.777h4.667c.123-.37.328-.696.574-.942l.04-.04c.246-.246.574-.411.902-.534v-6.264a.778.778 0 1 1 1.556 0v6.264c.368.123.696.328.941.574zm-.778 1.68a.836.836 0 0 0-.245-.616c-.123-.163-.369-.245-.615-.245a.834.834 0 0 0-.614.245l-.04.042a.832.832 0 0 0-.246.613c0 .246.082.45.245.615.123.164.369.245.614.245.246 0 .45-.081.615-.245.164-.123.286-.369.286-.655z"/></g></g></svg>