<svg xmlns="http://www.w3.org/2000/svg" width="26" height="25" viewBox="0 0 26 25"><g><g><path fill="#49c5bb" d="M5.272 24.97a.463.463 0 0 1-.273-.09.471.471 0 0 1-.185-.459L6.25 15.97.172 9.984a.473.473 0 0 1-.118-.48c.055-.17.2-.294.375-.32l8.399-1.232 3.756-7.69a.463.463 0 0 1 .832 0l3.756 7.69 8.399 1.233c.175.025.32.148.375.319.054.17.009.356-.118.48l-6.077 5.986 1.434 8.452a.473.473 0 0 1-.184.459.459.459 0 0 1-.49.035L13 20.926l-7.512 3.99a.466.466 0 0 1-.216.053zM1.494 9.975l5.578 5.494c.11.108.16.263.133.415l-1.317 7.758 6.896-3.663a.46.46 0 0 1 .432 0l6.895 3.663-1.316-7.758a.473.473 0 0 1 .133-.415l5.579-5.494-7.71-1.132a.464.464 0 0 1-.349-.257L13 1.53 9.552 8.588a.466.466 0 0 1-.35.257z"/></g></g></svg>