<svg xmlns="http://www.w3.org/2000/svg" width="32" height="32" viewBox="0 0 32 32"><g><g><path fill="#ef694b" d="M16 0c8.837 0 16 7.164 16 16s-7.163 16-16 16S0 24.836 0 16 7.163 0 16 0z"/></g><g><path fill="#343434" d="M11.07 8c1.142 0 2.07.943 2.07 2.108 0 1.164-.928 2.108-2.07 2.108-1.143 0-2.07-.944-2.07-2.108C9 8.943 9.927 8 11.07 8zm9.86 0c1.143 0 2.07.943 2.07 2.108 0 1.164-.927 2.108-2.07 2.108-1.143 0-2.07-.944-2.07-2.108 0-1.165.927-2.108 2.07-2.108zm-10.2 14c-.088 0-1.176-.024-1.256-.073a.502.502 0 0 1-.158-.683C10.707 18.95 13.353 17 16 17c2.61 0 4.768 1.92 6.166 4.164.144.231-.923.537-1.15.684a.482.482 0 0 1-.672-.154C19.126 19.737 18.274 19 16 19c-2.306 0-3.641.764-4.855 2.766a.487.487 0 0 1-.416.234z"/></g></g></svg>