<svg xmlns="http://www.w3.org/2000/svg" width="32" height="32" viewBox="0 0 32 32"><g><g><path fill="#ef694b" d="M16 0c8.837 0 16 7.163 16 16s-7.163 16-16 16S0 24.837 0 16 7.163 0 16 0z"/></g><g><path fill="#343434" d="M17.243 8.126c.329.125.574.398.672.738l.97 3.362 6.362-2.96a1.122 1.122 0 0 1 1.492.55c.261.566.02 1.236-.544 1.497l-7.551 3.512a1.128 1.128 0 0 1-1.554-.71l-.924-3.195-4.486 2.818a1.123 1.123 0 0 1-1.545-.372c-.41-.667-.017-1.315.367-1.55l5.744-3.6c.3-.187.668-.216.997-.09zm-4.053 9.776l.97 3.362 6.362-2.96a1.128 1.128 0 1 1 .948 2.048l-7.55 3.51a1.129 1.129 0 0 1-1.554-.71l-.925-3.195-4.486 2.82a1.122 1.122 0 0 1-1.545-.373c-.41-.666-.016-1.314.367-1.55l5.74-3.599c.3-.182.667-.216.99-.09.334.125.585.398.683.737z"/></g></g></svg>