<svg xmlns="http://www.w3.org/2000/svg" width="36" height="32" viewBox="0 0 36 32"><g><g><path fill="#ef694b" d="M35.366 26.716L21.035 1.76A3.466 3.466 0 0 0 18 0a3.465 3.465 0 0 0-3.035 1.76L.634 26.717a3.5 3.5 0 0 0 0 3.522A3.464 3.464 0 0 0 3.668 32h28.664a3.465 3.465 0 0 0 3.035-1.761 3.504 3.504 0 0 0 0-3.523z"/></g><g><path fill="#343434" d="M21.05 18.432l1.273-2.338s-1.663.306-2.46 1.076c-.7.678-.144.614-.144.614a6.782 6.782 0 0 1 1.593 4.39c0 1.825-.709 3.54-1.996 4.829A6.781 6.781 0 0 1 14.489 29a6.78 6.78 0 0 1-4.828-1.997c-2.66-2.663-2.66-6.996 0-9.659a6.766 6.766 0 0 1 4.82-1.995c1.29 0 2.562.37 3.646 1.053-.034-.024-.208-.194.5-.814.707-.619 2.8-1.193 2.8-1.193l-1.874-1.016.81-1.378L25 14.516l-2.523 4.64zM10 22.5a4.5 4.5 0 1 0 9 0 4.5 4.5 0 0 0-9 0z"/></g></g></svg>