<svg xmlns="http://www.w3.org/2000/svg" width="21" height="24" viewBox="0 0 21 24"><g><g><path fill="#49c5bb" d="M19.604 18.153c.427.56.612 1.185.539 1.805-.073.615-.394 1.178-.932 1.634-.234.198-.471.385-.703.562-.339.265-.662.514-.95.793-.005.012-.016.017-.021.025-.83.731-1.814 1.023-2.926.882-.096-.012-.202-.032-.302-.048-1.64-.318-3.042-1.15-4.085-1.833-2.727-1.82-5.021-4.2-6.821-7.076C1.92 12.51.995 10.349.473 8.069.26 7.14.007 5.733.295 4.291a3.682 3.682 0 0 1 1.32-2.184L3.455.604l.011-.01C4.005.18 4.603-.004 5.191.07c.587.075 1.116.4 1.526.94.278.337.543.694.796 1.043.126.178.26.357.392.53l1.153 1.529c.887 1.17.726 2.526-.41 3.445-.15.122-.302.252-.454.373-.401.33-.813.672-1.252.994.214.71.54 1.428 1.048 2.288 1.055 1.739 2.206 3.126 3.52 4.24.13.113.283.216.446.33.112.077.23.16.347.246l1.708-1.376c.547-.446 1.146-.633 1.738-.561.598.077 1.13.419 1.537.98zm-1.036.825l-2.328-3.087c-.005-.001-.005-.001-.009-.007-.13-.19-.352-.415-.65-.457-.304-.032-.588.138-.772.286l-1.85 1.495c-.091.075-.372.305-.772.253a1.023 1.023 0 0 1-.462-.188c-.018-.008-.036-.028-.054-.04a5.724 5.724 0 0 0-.445-.323 7.476 7.476 0 0 1-.553-.409c-1.426-1.209-2.67-2.708-3.799-4.576l-.004-.005c-.618-1.054-1.004-1.921-1.244-2.822l-.01-.048c-.053-.294-.08-.724.385-1.103.006-.01.017-.012.027-.017.466-.336.898-.689 1.354-1.062.156-.122.308-.25.465-.38.573-.46.63-.95.183-1.544L6.876 3.421c-.134-.186-.27-.366-.4-.545a21.75 21.75 0 0 0-.76-.999c-.005-.011-.01-.013-.013-.02-.136-.18-.359-.401-.662-.44-.246-.029-.511.06-.774.262L2.423 3.17a2.32 2.32 0 0 0-.84 1.398c-.181.904-.132 1.887.169 3.19.486 2.126 1.36 4.158 2.758 6.418 1.698 2.707 3.861 4.952 6.426 6.662.938.622 2.199 1.367 3.618 1.645.071.013.149.022.22.033.752.093 1.355-.084 1.906-.565.341-.325.698-.607 1.048-.877.232-.181.447-.35.66-.533-.006.004-.006 0 0 0 .553-.466.615-.988.18-1.562z"/></g></g></svg>