<svg xmlns="http://www.w3.org/2000/svg" width="96" height="30" viewBox="0 0 96 30"><defs><clipPath id="vbgna"><path fill="#fff" d="M11 .001h80a5 5 0 0 1 5 5v20a5 5 0 0 1-5 5H11a5 5 0 0 1-5-5v-4.226l-6-5.718 6-5.991V5a5 5 0 0 1 5-4.999z"/></clipPath></defs><g><g opacity=".2"><path fill="#fff" d="M11 .001h80a5 5 0 0 1 5 5v20a5 5 0 0 1-5 5H11a5 5 0 0 1-5-5v-4.226l-6-5.718 6-5.991V5a5 5 0 0 1 5-4.999z"/><path fill="none" stroke="#e3e9ef" stroke-linecap="round" stroke-linejoin="round" stroke-miterlimit="50" stroke-width="2" d="M11 .001h80a5 5 0 0 1 5 5v20a5 5 0 0 1-5 5H11a5 5 0 0 1-5-5v-4.226 0l-6-5.718v0l6-5.991v0V5a5 5 0 0 1 5-4.999z" clip-path="url(&quot;#vbgna&quot;)"/></g></g></svg>